<?xml version="1.0" standalone="no"?>
<!DOCTYPE svg PUBLIC "-//W3C//DTD SVG 20010904//EN"
 "http://www.w3.org/TR/2001/REC-SVG-20010904/DTD/svg10.dtd">
<svg version="1.0" xmlns="http://www.w3.org/2000/svg"
 width="512.000000pt" height="512.000000pt" viewBox="0 0 512.000000 512.000000"
 preserveAspectRatio="xMidYMid meet">

<g transform="translate(0.000000,512.000000) scale(0.100000,-0.100000)"
fill="#000000" stroke="none">
<path d="M1148 5104 c-303 -47 -600 -231 -780 -485 -346 -485 -283 -1140 148
-1549 170 -162 398 -274 635 -314 l36 -6 46 -148 c138 -435 197 -806 197
-1232 0 -375 50 -699 151 -986 64 -181 131 -274 236 -327 175 -89 359 -35 498
148 96 126 143 250 180 475 33 199 96 451 153 607 47 129 97 194 192 255 100
64 188 77 291 43 43 -14 69 -34 130 -94 127 -128 181 -262 244 -611 73 -406
143 -600 267 -734 42 -46 79 -75 126 -98 61 -30 74 -33 162 -33 116 0 163 19
245 96 152 144 236 383 280 794 8 77 20 311 25 520 6 223 16 419 25 475 7 52
86 406 174 785 88 380 165 731 172 780 15 116 6 286 -21 395 -12 47 -44 131
-71 187 -114 237 -313 353 -604 353 -167 0 -248 -17 -540 -115 -384 -128 -618
-172 -860 -161 -126 5 -278 30 -359 58 -37 13 -39 16 -61 93 -162 562 -731
921 -1317 829z m338 -75 c671 -93 1104 -757 918 -1408 -116 -406 -450 -707
-871 -787 -117 -22 -343 -14 -456 15 -326 86 -587 294 -732 586 -163 327 -161
679 6 1005 60 118 127 207 220 295 245 231 585 340 915 294z m2937 -714 c329
-58 503 -348 468 -777 -8 -98 -76 -426 -132 -639 l-9 -37 -78 15 c-269 51
-487 227 -553 447 -60 201 -102 286 -162 330 -26 19 -47 22 -230 28 -111 3
-213 9 -227 13 -14 4 -54 16 -90 27 -167 52 -274 156 -295 284 l-6 42 68 7
c37 3 122 18 188 32 107 22 198 50 536 168 198 68 367 88 522 60z m-1798 -235
c57 -13 145 -23 240 -27 92 -4 153 -10 157 -17 4 -6 8 -24 8 -41 0 -50 55
-151 111 -205 67 -64 186 -125 307 -157 84 -22 120 -26 269 -28 155 -2 175 -4
194 -21 31 -28 63 -97 99 -214 18 -58 44 -127 58 -155 103 -208 281 -339 557
-410 83 -22 90 -25 87 -47 -1 -13 -36 -180 -77 -373 -116 -546 -120 -580 -130
-1010 -10 -489 -48 -772 -130 -991 -98 -261 -280 -368 -469 -275 -135 66 -224
218 -292 496 -13 55 -42 202 -64 327 -43 247 -74 348 -142 462 -59 101 -157
199 -237 239 -60 29 -74 32 -161 32 -87 0 -101 -3 -163 -33 -85 -42 -181 -130
-230 -213 -44 -74 -100 -245 -147 -444 -18 -77 -34 -146 -36 -152 -7 -28 -157
-2 -245 43 -64 32 -133 95 -166 151 -35 60 -105 119 -165 139 -66 22 -166 14
-271 -20 -43 -14 -80 -26 -82 -26 -3 0 -5 48 -5 108 -1 546 -70 1012 -210
1426 -16 50 -30 91 -30 92 0 1 44 5 98 8 333 23 579 132 803 355 242 241 362
549 346 888 -5 114 -4 124 11 119 10 -3 58 -15 107 -26z m-764 -3007 c35 -19
64 -43 84 -71 108 -157 237 -239 406 -258 l61 -7 -6 -56 c-27 -230 -90 -386
-201 -497 -76 -77 -124 -98 -215 -99 -89 0 -151 26 -215 89 -99 100 -212 461
-250 796 l-6 55 73 27 c151 56 192 59 269 21z"/>
<path d="M1313 4873 c-9 -3 -13 -31 -13 -89 0 -95 13 -83 -113 -103 -37 -7
-71 -9 -76 -7 -4 3 -16 32 -26 65 -22 73 -44 98 -74 81 -27 -14 -26 -21 3
-108 l25 -72 -42 -21 c-23 -12 -59 -33 -80 -47 l-39 -26 -53 57 c-55 59 -82
69 -106 41 -15 -19 -7 -35 55 -108 l38 -46 -38 -43 c-22 -24 -48 -56 -60 -72
l-20 -29 -66 37 c-73 41 -90 44 -108 22 -21 -25 -2 -49 65 -85 45 -24 64 -40
61 -50 -26 -83 -55 -155 -65 -158 -6 -2 -41 1 -76 7 -72 13 -105 4 -105 -28 0
-29 23 -41 100 -54 39 -7 71 -15 71 -19 -1 -5 -1 -48 -1 -97 l0 -89 -72 -12
c-79 -13 -98 -23 -98 -50 0 -37 25 -44 103 -29 40 8 76 14 80 14 7 0 30 -58
63 -156 4 -12 -12 -27 -63 -56 -54 -31 -69 -44 -71 -66 -5 -39 34 -46 84 -14
22 13 53 31 71 41 32 16 32 16 47 -11 8 -16 33 -47 55 -70 23 -23 41 -45 41
-49 0 -3 -23 -33 -51 -66 -47 -53 -51 -61 -41 -83 18 -40 46 -30 106 38 48 54
57 60 73 50 10 -7 46 -29 80 -48 l61 -36 -25 -75 c-14 -41 -22 -81 -19 -89 3
-9 18 -15 36 -15 33 0 33 0 74 111 l17 46 57 -13 c31 -8 72 -14 90 -14 l32 0
0 -79 c0 -59 4 -84 16 -95 40 -40 64 -6 64 91 l0 68 73 13 c39 6 81 13 91 14
15 3 24 -11 43 -70 20 -59 29 -73 50 -78 16 -4 30 -1 41 9 15 15 14 23 -11 93
-15 43 -26 78 -25 79 2 2 26 14 53 28 28 14 61 34 75 46 l25 21 61 -66 c50
-55 64 -65 82 -60 37 12 28 55 -23 115 -25 29 -45 55 -45 58 0 3 19 27 43 52
23 25 49 57 57 69 l15 24 72 -41 c79 -45 106 -45 101 -2 -2 20 -18 35 -71 66
-48 29 -65 44 -61 55 4 8 18 48 32 88 l25 73 46 -8 c78 -13 122 -10 135 10 18
29 -5 51 -70 65 -32 6 -69 14 -81 17 -20 5 -21 10 -20 100 2 106 -3 99 82 111
28 3 58 11 68 16 22 11 22 55 -1 67 -16 8 -33 7 -143 -13 -24 -5 -28 -1 -39
42 -7 26 -22 64 -32 85 -10 21 -17 41 -14 45 2 4 34 23 70 42 51 27 66 40 66
57 0 39 -39 39 -108 -1 -71 -42 -77 -43 -93 -14 -6 12 -32 43 -56 70 l-45 47
52 60 c43 49 51 65 46 86 -11 45 -47 33 -109 -37 -52 -59 -56 -62 -74 -47 -10
9 -44 31 -76 49 -42 23 -57 37 -54 49 3 9 16 44 28 77 20 53 21 64 10 78 -29
35 -53 15 -82 -64 -15 -43 -33 -75 -40 -75 -8 0 -49 6 -91 14 l-78 14 0 74 c0
100 -17 127 -67 106z m192 -279 c111 -26 221 -90 310 -179 139 -139 195 -265
203 -452 6 -137 -13 -231 -68 -341 -88 -174 -232 -295 -420 -354 -111 -34
-283 -32 -395 5 -153 51 -286 150 -371 279 -179 269 -143 632 85 858 87 85
157 130 261 166 128 45 259 51 395 18z"/>
<path d="M1578 4360 c-122 -65 -113 -252 16 -311 54 -25 92 -24 146 4 131 65
130 245 -1 313 -39 20 -117 17 -161 -6z m155 -101 c34 -37 35 -78 2 -117 -59
-70 -165 -29 -165 64 0 38 18 64 53 79 42 18 76 10 110 -26z"/>
<path d="M995 4327 c-100 -33 -145 -76 -145 -137 0 -67 59 -116 168 -139 188
-40 387 31 386 137 0 52 -27 87 -92 119 -50 25 -70 28 -167 30 -70 2 -124 -2
-150 -10z m288 -86 c32 -16 47 -29 47 -42 0 -14 -14 -27 -47 -42 -40 -18 -66
-22 -153 -22 -92 0 -111 3 -155 25 -27 14 -50 31 -50 39 0 17 53 50 98 62 18
4 73 7 122 6 70 -2 101 -8 138 -26z"/>
<path d="M1476 3915 c-154 -82 -268 -253 -237 -357 35 -117 196 -95 336 46 77
77 115 151 115 224 0 46 -4 58 -29 83 -25 25 -37 29 -84 29 -38 0 -68 -7 -101
-25z m138 -62 c23 -58 -89 -209 -194 -263 -49 -25 -103 -24 -108 2 -6 30 44
125 93 177 75 80 193 127 209 84z"/>
<path d="M926 3897 c-99 -56 -101 -197 -4 -258 47 -29 137 -23 174 12 56 52
70 125 35 189 -22 42 -84 80 -131 80 -19 0 -53 -10 -74 -23z m118 -68 c51 -40
22 -122 -44 -122 -66 0 -95 82 -44 122 15 12 34 21 44 21 10 0 29 -9 44 -21z"/>
<path d="M4320 4075 c-18 -22 -8 -47 29 -72 39 -26 50 -28 75 -10 24 18 7 61
-33 82 -37 19 -55 19 -71 0z"/>
<path d="M3842 4008 c-21 -21 -13 -48 21 -68 36 -22 67 -26 84 -9 18 18 -4 54
-43 73 -41 19 -46 20 -62 4z"/>
<path d="M4636 3777 c-40 -29 21 -92 82 -85 21 2 28 9 30 30 3 21 -3 30 -25
41 -47 24 -68 28 -87 14z"/>
<path d="M4226 3731 c-14 -15 -15 -24 -7 -40 16 -29 68 -54 97 -47 43 11 28
58 -27 86 -46 24 -42 24 -63 1z"/>
<path d="M4505 3344 c-9 -9 -14 -23 -11 -31 3 -8 6 -16 6 -19 0 -9 61 -34 84
-34 27 0 50 29 41 53 -6 15 -67 47 -90 47 -7 0 -21 -7 -30 -16z"/>
</g>
</svg>
