<?xml version="1.0" standalone="no"?>
<!DOCTYPE svg PUBLIC "-//W3C//DTD SVG 20010904//EN"
 "http://www.w3.org/TR/2001/REC-SVG-20010904/DTD/svg10.dtd">
<svg version="1.0" xmlns="http://www.w3.org/2000/svg"
 width="512.000000pt" height="512.000000pt" viewBox="0 0 512.000000 512.000000"
 preserveAspectRatio="xMidYMid meet">

<g transform="translate(0.000000,512.000000) scale(0.100000,-0.100000)"
fill="#000000" stroke="none">
<path d="M1733 5091 c-39 -11 -84 -26 -100 -34 -22 -12 -53 -14 -133 -10 -167
8 -301 -34 -422 -134 -29 -24 -82 -60 -116 -80 -129 -76 -244 -232 -276 -376
-8 -34 -18 -117 -22 -184 -6 -121 -7 -122 -34 -133 -68 -28 -100 -96 -100
-210 0 -92 20 -145 70 -182 l30 -22 0 -170 c0 -123 -4 -182 -15 -211 -22 -61
-19 -174 7 -242 37 -100 150 -192 257 -209 l41 -7 0 -67 c0 -259 123 -535 326
-730 l84 -80 0 -148 0 -148 -268 -109 c-341 -138 -431 -180 -523 -242 -108
-73 -139 -105 -139 -142 0 -64 76 -94 130 -50 57 45 143 101 207 133 76 38
493 209 498 204 2 -2 134 -331 295 -733 181 -454 299 -737 312 -748 28 -23 62
-21 91 6 17 15 110 237 312 742 157 396 290 724 294 728 4 4 15 5 25 1 13 -5
15 -13 9 -43 -14 -68 -7 -312 10 -403 49 -248 159 -464 329 -643 391 -413 997
-521 1503 -268 123 62 207 125 321 238 115 113 185 208 246 330 209 415 176
908 -85 1295 -100 148 -358 380 -422 380 -12 0 -34 -10 -49 -21 -22 -17 -26
-28 -24 -57 3 -33 12 -43 99 -109 221 -167 365 -376 429 -620 104 -397 -5
-801 -294 -1089 -344 -345 -845 -430 -1281 -220 -236 114 -413 289 -525 520
-121 249 -149 519 -80 781 104 392 414 702 805 804 178 47 336 50 533 9 l103
-21 27 20 c21 16 27 29 27 58 0 52 -29 71 -150 97 -129 27 -369 29 -490 4
-332 -70 -619 -255 -805 -518 -59 -84 -139 -237 -165 -318 -10 -30 -19 -57
-21 -59 -2 -2 -39 11 -84 29 l-80 32 0 157 0 157 66 64 c200 197 307 425 323
689 l6 104 60 17 c76 20 97 32 153 84 88 81 127 210 98 325 -12 46 -16 110
-16 236 0 162 1 174 19 180 33 10 71 46 91 86 28 54 28 194 0 248 -24 48 -60
78 -110 91 l-37 10 -6 127 c-8 149 -22 210 -74 313 -45 88 -140 187 -229 240
-32 19 -79 51 -104 72 -116 96 -267 144 -423 135 -83 -4 -100 -2 -182 26 -119
40 -247 46 -352 18z m331 -170 c76 -30 82 -31 181 -25 154 10 245 -18 357
-109 29 -24 77 -56 106 -72 158 -86 242 -251 242 -477 l0 -78 -59 0 -60 0 -32
60 c-42 79 -125 169 -202 220 -145 95 -349 122 -510 67 -150 -52 -277 -157
-346 -287 l-32 -60 -214 0 c-208 0 -215 -1 -239 -22 -36 -33 -39 -75 -6 -108
19 -19 33 -20 220 -20 l200 0 0 -75 0 -75 -479 0 c-264 0 -486 3 -495 6 -23 9
-23 129 0 138 9 3 83 6 165 6 136 0 151 2 169 20 30 30 27 83 -6 109 -23 18
-41 21 -122 21 l-94 0 7 118 c8 133 30 217 76 285 39 60 117 129 175 157 25
12 68 42 97 67 105 91 198 119 358 109 93 -5 112 -4 151 14 136 60 261 64 392
11z m344 -556 c126 -38 252 -164 292 -291 82 -268 -82 -535 -361 -585 -250
-45 -499 153 -516 409 -22 324 273 559 585 467z m700 -364 c9 -5 12 -27 10
-72 l-3 -64 -122 -3 -123 -3 0 76 0 75 113 0 c61 0 118 -4 125 -9z m-2188
-356 c0 -44 -4 -67 -12 -69 -7 -2 -31 -8 -53 -13 -22 -6 -48 -14 -57 -18 -16
-6 -18 1 -18 79 l0 86 70 0 70 0 0 -65z m821 5 c130 -245 437 -373 699 -292
84 26 144 58 208 109 l42 34 0 -380 c0 -400 -4 -443 -50 -575 -86 -249 -302
-461 -558 -546 -249 -84 -509 -13 -735 199 -115 109 -199 252 -251 426 -19 66
-20 99 -24 578 l-3 507 320 0 320 0 32 -60z m1249 -26 c0 -78 -2 -85 -17 -79
-10 3 -38 11 -63 17 -25 6 -51 12 -57 14 -9 2 -13 25 -13 69 l0 65 75 0 75 0
0 -86z m-2070 -395 l0 -191 -27 7 c-47 11 -102 53 -123 95 -22 43 -27 121 -9
167 20 53 92 113 137 113 l22 0 0 -191z m1989 177 c58 -30 111 -115 111 -176
0 -65 -48 -138 -111 -170 -71 -37 -69 -42 -69 170 0 185 1 190 20 190 12 0 34
-7 49 -14z m-1242 -1562 c74 -22 107 -26 208 -26 135 0 224 19 340 71 37 17
72 31 76 31 5 0 9 -53 9 -118 l0 -118 -156 -134 c-86 -73 -173 -142 -192 -152
-83 -42 -125 -22 -318 147 l-154 136 0 120 0 119 49 -25 c28 -13 89 -37 138
-51z m714 -321 c-10 -27 -126 -315 -256 -642 l-238 -593 -253 633 c-140 348
-252 634 -250 636 2 2 77 -60 166 -138 90 -78 184 -151 209 -162 60 -27 177
-29 242 -4 29 11 107 70 220 167 96 82 175 149 176 150 2 0 -6 -21 -16 -47z"/>
<path d="M2207 4229 c-221 -52 -309 -309 -168 -488 48 -61 147 -106 231 -106
161 0 286 116 298 274 5 80 -8 132 -49 194 -39 60 -101 103 -175 122 -64 17
-81 17 -137 4z m143 -168 c99 -71 90 -210 -17 -262 -73 -35 -140 -14 -190 61
-86 126 83 290 207 201z"/>
<path d="M3410 2030 c-179 -28 -338 -153 -407 -320 -21 -53 -27 -85 -31 -172
-7 -178 13 -224 216 -501 56 -77 102 -144 102 -150 1 -67 42 -361 54 -384 32
-62 114 -113 182 -113 62 0 144 51 173 108 10 20 33 114 50 207 17 94 36 180
41 193 22 51 98 48 118 -5 6 -15 25 -104 42 -197 34 -186 43 -209 94 -254 74
-65 170 -67 254 -5 56 42 70 85 91 282 l20 180 121 168 c67 92 133 189 146
215 130 256 23 569 -238 697 -170 84 -349 74 -516 -28 -27 -17 -59 -31 -71
-31 -12 0 -54 18 -94 39 -117 64 -236 88 -347 71z m190 -162 c19 -5 65 -28
102 -50 108 -64 192 -63 296 3 104 66 234 81 344 39 63 -23 147 -92 183 -150
55 -88 70 -218 36 -316 -19 -53 -42 -88 -217 -328 l-79 -110 -21 -195 c-18
-160 -25 -197 -40 -208 -51 -37 -76 -2 -103 148 -39 212 -51 256 -82 298 -49
68 -140 101 -223 80 -53 -13 -117 -65 -140 -113 -9 -18 -32 -116 -51 -217 -34
-183 -45 -209 -82 -209 -21 0 -53 38 -54 63 0 12 -8 94 -17 183 -13 118 -23
169 -36 190 -11 16 -70 99 -131 184 -132 182 -152 219 -164 300 -37 273 214
487 479 408z"/>
<path d="M3605 1600 c-23 -26 -24 -74 -1 -99 48 -53 208 -90 313 -71 82 14
159 46 178 74 21 29 18 73 -6 97 -25 25 -63 22 -154 -11 -70 -26 -144 -22
-211 10 -52 26 -96 26 -119 0z"/>
<path d="M202 1025 c-34 -43 -109 -196 -136 -277 -50 -148 -57 -201 -63 -450
l-5 -237 25 -25 c33 -33 71 -33 102 -1 25 24 25 26 25 204 0 99 5 215 11 258
18 137 67 277 149 422 31 56 32 80 2 114 -24 27 -86 23 -110 -8z"/>
<path d="M499 621 l-39 -39 0 -162 0 -162 39 -39 39 -39 348 0 c381 0 382 0
421 59 21 32 23 44 23 181 0 137 -2 149 -23 181 -39 59 -40 59 -421 59 l-348
0 -39 -39z m681 -201 l0 -90 -285 0 -285 0 0 90 0 90 285 0 285 0 0 -90z"/>
</g>
</svg>
