<?xml version="1.0" standalone="no"?>
<!DOCTYPE svg PUBLIC "-//W3C//DTD SVG 20010904//EN"
 "http://www.w3.org/TR/2001/REC-SVG-20010904/DTD/svg10.dtd">
<svg version="1.0" xmlns="http://www.w3.org/2000/svg"
 width="512.000000pt" height="512.000000pt" viewBox="0 0 512.000000 512.000000"
 preserveAspectRatio="xMidYMid meet">

<g transform="translate(0.000000,512.000000) scale(0.100000,-0.100000)"
fill="#000000" stroke="none">
<path d="M1645 5016 c-130 -25 -226 -77 -307 -163 -53 -58 -86 -118 -118 -218
-19 -57 -24 -100 -27 -235 -7 -256 31 -458 166 -874 115 -353 131 -472 123
-923 l-4 -273 -477 0 c-262 0 -507 -5 -546 -10 -143 -21 -263 -111 -328 -247
l-32 -68 -3 -937 -2 -936 26 -21 27 -21 2419 0 2419 0 25 25 24 25 -2 933 -3
933 -38 76 c-45 92 -128 174 -210 208 l-55 23 21 46 c31 66 30 213 -1 291 -45
112 -130 197 -242 242 -43 17 -76 22 -150 22 -87 1 -101 -2 -163 -31 -90 -43
-169 -119 -209 -202 -46 -96 -51 -234 -12 -335 6 -14 -11 -16 -159 -16 l-165
0 -4 268 c-7 457 9 579 117 912 127 389 165 562 172 788 5 140 4 154 -13 173
-16 18 -25 20 -64 14 -25 -5 -82 -9 -128 -10 -45 -2 -88 -8 -96 -14 -8 -7 -26
-36 -40 -65 -68 -140 -252 -156 -339 -30 -57 81 -46 170 29 255 56 63 57 92 8
140 -47 44 -74 102 -74 159 0 64 -21 90 -71 90 -85 0 -284 -54 -466 -127
l-113 -45 -97 40 c-298 122 -621 176 -818 138z m331 -141 c129 -22 288 -69
427 -126 67 -28 132 -53 144 -56 13 -3 58 10 115 35 110 47 329 119 376 124
32 3 35 0 49 -41 8 -25 25 -61 38 -81 20 -32 21 -38 8 -55 -64 -85 -78 -237
-32 -336 34 -72 96 -134 168 -168 47 -22 70 -26 141 -26 73 0 93 4 142 28 52
26 158 125 158 148 0 5 18 9 40 9 l40 0 0 -47 c0 -133 -64 -415 -160 -708 -67
-203 -104 -350 -120 -475 -6 -47 -12 -301 -14 -575 -2 -282 -8 -533 -15 -590
-41 -355 -98 -556 -186 -654 -20 -22 -45 -41 -55 -41 -28 0 -100 86 -135 163
-62 138 -85 289 -85 578 0 211 -14 315 -59 438 -54 148 -138 246 -261 305 -55
26 -77 31 -140 31 -63 0 -85 -5 -140 -31 -129 -62 -212 -163 -267 -324 -42
-124 -53 -214 -53 -426 0 -276 -26 -446 -89 -581 -33 -69 -104 -153 -131 -153
-20 0 -81 64 -105 111 -35 67 -66 164 -90 285 -50 244 -58 361 -61 890 -3 620
-9 666 -128 1033 -123 377 -155 524 -163 756 -6 179 7 269 52 361 86 176 301
248 591 199z m2464 -2111 c76 -23 153 -100 176 -179 28 -99 11 -180 -57 -266
-33 -42 -38 -88 -11 -112 9 -8 44 -18 77 -22 107 -13 191 -68 235 -155 11 -22
20 -41 20 -44 0 -2 -154 -6 -342 -8 -385 -5 -400 -7 -507 -79 -67 -45 -124
-115 -152 -189 -10 -27 -30 -118 -43 -202 -41 -248 -91 -417 -162 -546 -162
-290 -501 -371 -727 -172 -151 133 -263 427 -308 808 -11 90 -15 106 -37 123
-58 46 -106 6 -116 -97 -13 -121 -55 -331 -87 -432 -99 -311 -236 -469 -438
-504 -196 -33 -399 72 -509 264 -74 129 -133 328 -172 583 -34 219 -98 324
-242 394 -89 43 -161 51 -500 51 -164 0 -298 2 -298 5 0 3 9 23 20 45 27 54
77 102 136 131 l49 24 514 3 c415 3 516 1 522 -10 5 -7 9 -44 9 -81 0 -174 48
-497 97 -651 69 -220 200 -370 308 -353 67 11 166 98 220 194 89 159 115 298
125 658 7 233 11 293 28 357 25 94 61 166 109 219 170 188 394 84 475 -219 17
-64 22 -125 28 -357 10 -353 30 -467 110 -624 62 -123 157 -215 235 -228 108
-17 239 133 308 353 47 149 97 476 97 641 0 32 3 68 6 81 l6 22 249 0 c236 0
250 1 269 20 28 28 25 61 -11 106 -49 61 -69 112 -69 180 0 99 38 179 110 229
80 55 155 67 250 39z m-3479 -950 c62 -29 114 -77 139 -128 12 -25 32 -115 49
-218 33 -197 48 -261 92 -385 60 -169 130 -285 227 -375 111 -102 236 -155
392 -165 271 -17 485 143 623 467 20 47 44 113 53 148 10 34 20 62 24 62 4 0
14 -28 24 -62 69 -251 227 -478 388 -556 140 -68 295 -78 453 -28 215 68 368
245 463 536 40 121 56 189 86 378 15 90 34 171 46 197 25 52 77 100 139 129
43 20 65 21 389 24 l342 4 0 -806 0 -806 -2330 0 -2330 0 0 806 0 806 343 -4
c323 -3 345 -4 388 -24z"/>
<path d="M4302 3317 c-20 -21 -22 -34 -22 -149 0 -112 2 -127 20 -143 29 -26
79 -24 102 4 15 20 18 41 18 143 0 113 -1 120 -25 143 -30 31 -65 32 -93 2z"/>
<path d="M4779 3033 c-101 -101 -114 -129 -75 -167 45 -46 70 -36 168 62 73
73 88 94 88 119 0 35 -38 73 -73 73 -12 0 -56 -36 -108 -87z"/>
<path d="M3760 3090 c-40 -40 -28 -69 74 -168 51 -51 98 -92 104 -92 6 0 22 5
35 11 23 11 47 46 47 71 0 6 -41 53 -92 104 -99 102 -128 114 -168 74z"/>
</g>
</svg>
