<?xml version="1.0" standalone="no"?>
<!DOCTYPE svg PUBLIC "-//W3C//DTD SVG 20010904//EN"
 "http://www.w3.org/TR/2001/REC-SVG-20010904/DTD/svg10.dtd">
<svg version="1.0" xmlns="http://www.w3.org/2000/svg"
 width="512.000000pt" height="512.000000pt" viewBox="0 0 512.000000 512.000000"
 preserveAspectRatio="xMidYMid meet">

<g transform="translate(0.000000,512.000000) scale(0.100000,-0.100000)"
fill="#000000" stroke="none">
<path d="M2370 5024 c-246 -28 -406 -60 -570 -114 -136 -45 -294 -112 -321
-136 -40 -36 -10 -114 44 -114 13 0 64 18 114 39 303 131 567 185 918 185 228
1 349 -12 531 -54 849 -198 1522 -862 1734 -1710 196 -787 -36 -1623 -612
-2204 -65 -66 -121 -117 -124 -113 -3 3 6 57 20 121 14 63 26 124 26 134 0 25
-41 62 -69 62 -50 0 -64 -32 -120 -281 -55 -248 -56 -265 -13 -287 9 -5 127
-13 260 -17 l244 -7 24 23 c31 29 31 69 1 97 -21 19 -35 22 -118 22 -52 0
-110 3 -130 6 l-37 6 117 117 c585 584 840 1373 705 2181 -135 807 -690 1515
-1447 1844 -203 89 -397 144 -637 181 -99 15 -460 28 -540 19z"/>
<path d="M663 4568 c-29 -31 -29 -69 0 -96 21 -19 35 -22 118 -22 52 0 111 -3
131 -6 l37 -6 -117 -117 c-395 -392 -635 -866 -718 -1416 -22 -147 -26 -513
-6 -650 83 -574 313 -1046 702 -1436 603 -604 1450 -852 2293 -669 180 39 489
151 538 196 40 36 10 114 -45 114 -13 0 -55 -14 -93 -31 -167 -75 -370 -135
-579 -171 -172 -29 -519 -32 -694 -5 -512 79 -956 303 -1316 662 -359 358
-580 799 -661 1315 -24 158 -24 500 0 655 72 460 248 846 548 1201 77 90 228
238 236 231 2 -3 -7 -57 -21 -121 -14 -63 -26 -124 -26 -134 0 -25 41 -62 69
-62 50 0 64 32 120 281 55 248 56 265 13 288 -9 4 -127 12 -262 16 l-245 7
-22 -24z"/>
<path d="M2344 4345 c-281 -61 -389 -331 -300 -755 8 -36 13 -66 11 -68 -2 -2
-36 8 -77 23 -152 55 -248 76 -379 82 -139 6 -201 -3 -282 -44 -100 -50 -165
-133 -203 -258 -15 -46 -19 -91 -18 -195 1 -162 27 -299 104 -553 87 -284 90
-311 100 -737 9 -405 25 -589 65 -748 45 -176 124 -296 213 -323 36 -10 45 -9
86 11 97 46 172 173 207 350 6 30 14 152 18 270 7 187 11 224 32 285 26 78 93
158 142 170 92 23 184 -59 227 -200 6 -22 16 -141 20 -265 7 -169 14 -245 29
-307 37 -149 106 -256 195 -303 40 -22 48 -23 84 -12 24 7 59 31 86 58 111
111 165 322 187 734 6 113 8 248 5 300 -7 108 7 322 29 437 21 110 65 265 80
282 30 32 134 -38 174 -117 35 -70 43 -117 51 -337 12 -315 47 -450 149 -558
95 -101 167 -104 254 -8 131 145 187 463 187 1065 0 315 12 386 129 779 72
239 96 491 62 627 -61 242 -249 355 -534 322 -121 -14 -252 -48 -371 -95 l-87
-35 -72 30 c-104 43 -228 77 -337 93 -115 18 -185 18 -266 0z m354 -160 c57
-14 152 -45 213 -70 l109 -45 109 45 c200 82 402 118 526 95 250 -47 298 -317
144 -820 -106 -346 -118 -428 -123 -856 -3 -181 -10 -376 -16 -434 -23 -215
-67 -375 -121 -434 l-29 -31 -34 36 c-34 37 -70 118 -87 199 -5 25 -13 146
-18 270 -10 240 -18 285 -71 390 -15 30 -47 75 -71 99 -44 43 -128 91 -161 91
-23 0 -23 -3 7 143 85 427 -8 681 -279 753 -118 32 -339 11 -516 -49 -52 -17
-77 -22 -82 -14 -18 29 -41 202 -41 307 1 127 15 187 59 251 75 108 240 133
482 74z m-976 -710 c93 -20 181 -48 287 -93 l85 -35 45 17 c263 100 361 125
497 126 156 0 238 -40 289 -141 68 -134 49 -381 -55 -712 -98 -314 -110 -400
-115 -812 -4 -350 -14 -488 -46 -650 -21 -104 -68 -222 -100 -251 -18 -16 -21
-16 -44 6 -14 13 -36 47 -50 74 -46 95 -56 158 -65 401 -7 205 -10 238 -33
307 -56 175 -162 274 -304 286 -56 4 -70 1 -127 -27 -163 -80 -236 -247 -236
-543 -1 -170 -12 -269 -42 -362 -20 -66 -70 -145 -95 -153 -18 -6 -63 61 -88
134 -58 168 -74 318 -85 808 -9 426 -15 471 -100 743 -107 349 -132 552 -85
709 22 73 84 139 155 163 69 24 209 26 312 5z"/>
</g>
</svg>
