<?xml version="1.0" standalone="no"?>
<!DOCTYPE svg PUBLIC "-//W3C//DTD SVG 20010904//EN"
 "http://www.w3.org/TR/2001/REC-SVG-20010904/DTD/svg10.dtd">
<svg version="1.0" xmlns="http://www.w3.org/2000/svg"
 width="512.000000pt" height="512.000000pt" viewBox="0 0 512.000000 512.000000"
 preserveAspectRatio="xMidYMid meet">

<g transform="translate(0.000000,512.000000) scale(0.100000,-0.100000)"
fill="#000000" stroke="none">
<path d="M2119 5086 c-200 -54 -344 -303 -326 -563 l6 -82 -353 -3 -353 -3
-49 -30 c-30 -19 -60 -49 -79 -79 -28 -47 -30 -56 -33 -171 -3 -109 -1 -128
19 -174 24 -58 83 -114 136 -132 31 -10 34 -14 31 -47 l-3 -37 -466 -5 -466
-5 -49 -30 c-30 -19 -60 -49 -79 -79 -28 -46 -30 -57 -33 -160 -2 -63 1 -129
7 -153 15 -55 67 -121 114 -146 l37 -19 0 -1549 0 -1550 25 -24 24 -25 2331 0
2331 0 24 25 25 24 1 1548 0 1548 47 30 c27 17 59 50 76 79 27 43 31 59 34
147 3 54 1 119 -2 143 -9 60 -58 131 -115 164 l-46 27 -465 5 -465 5 -3 37
c-3 33 0 37 30 47 52 17 108 70 134 125 21 44 24 66 24 164 0 159 -35 232
-134 278 -51 24 -54 24 -393 24 l-342 0 6 83 c11 164 -46 339 -146 449 -127
139 -306 163 -494 68 -105 -54 -147 -54 -253 0 -111 55 -221 72 -315 46z m258
-197 c141 -69 225 -69 366 0 104 51 176 61 238 34 92 -41 157 -143 181 -280
22 -129 -13 -286 -104 -466 -84 -168 -126 -335 -152 -598 -15 -160 -25 -192
-59 -187 -50 7 -81 88 -123 318 -32 179 -57 246 -103 277 -69 47 -141 15 -178
-77 -11 -30 -33 -120 -47 -200 -42 -230 -73 -311 -123 -318 -34 -5 -43 25 -63
216 -28 258 -66 403 -150 572 -118 237 -139 430 -63 593 79 167 200 205 380
116z m-521 -646 c9 -21 36 -80 60 -132 24 -51 44 -100 44 -108 0 -12 -63 -13
-409 -11 l-409 3 -26 24 c-24 23 -26 31 -26 116 0 78 3 96 21 119 l20 26 355
0 355 0 15 -37z m2153 11 c18 -23 21 -41 21 -119 0 -85 -2 -93 -26 -116 l-26
-24 -409 -3 c-345 -2 -409 -1 -409 11 0 8 20 56 44 108 24 52 51 111 59 132
l16 37 355 0 355 0 20 -26z m-1980 -487 c6 -35 18 -132 26 -217 19 -187 40
-243 106 -287 36 -24 53 -28 109 -28 56 0 73 4 109 28 76 50 132 172 162 350
7 42 16 77 19 77 3 0 12 -35 19 -77 30 -178 86 -300 162 -350 36 -24 53 -28
109 -28 56 0 73 4 108 27 70 47 86 92 107 298 9 79 20 173 26 207 l11 63 369
0 369 0 0 -1825 0 -1825 -355 0 -355 0 0 340 0 340 45 0 c71 0 112 53 89 115
-17 44 -26 45 -704 45 -678 0 -687 -1 -704 -45 -23 -62 18 -115 89 -115 l45 0
0 -340 0 -340 -355 0 -355 0 0 1825 0 1825 369 0 369 0 11 -63z m-911 -309
l-3 -143 -443 0 -444 0 -24 28 c-22 25 -24 37 -24 118 0 82 2 92 25 114 l24
25 446 0 446 0 -3 -142z m3797 117 c23 -22 25 -32 25 -114 0 -81 -2 -93 -24
-118 l-24 -28 -444 0 -443 0 -3 143 -3 142 446 0 446 0 24 -25z m-3795 -542
l0 -118 -207 3 c-145 2 -222 -1 -253 -9 -58 -17 -131 -88 -148 -145 -9 -31
-12 -194 -12 -625 0 -656 -3 -627 76 -703 61 -59 110 -68 345 -64 l199 3 0
-125 0 -125 -201 3 c-139 3 -215 0 -246 -9 -66 -18 -117 -60 -147 -120 -26
-52 -26 -56 -26 -259 0 -201 1 -207 25 -257 15 -28 42 -63 61 -78 67 -51 104
-57 329 -53 l205 3 0 -87 0 -88 -390 0 -390 0 0 1485 0 1485 390 0 390 0 0
-117z m3660 -1368 l0 -1485 -390 0 -390 0 0 88 0 87 205 -3 c225 -4 262 2 329
53 19 15 46 50 61 78 24 50 25 56 25 257 0 203 0 207 -26 259 -30 60 -81 102
-147 120 -31 9 -107 12 -246 9 l-201 -3 0 125 0 125 199 -3 c235 -4 284 5 345
64 79 76 76 47 76 703 0 431 -3 594 -12 625 -17 57 -90 128 -148 145 -31 8
-108 11 -253 9 l-207 -3 0 118 0 117 390 0 390 0 0 -1485z m-3700 1085 c33
-18 40 -66 40 -296 l0 -224 -230 0 -230 0 0 242 c0 314 -20 288 222 288 99 0
188 -4 198 -10z m3357 -12 c23 -21 23 -23 23 -265 l0 -243 -230 0 -230 0 0
224 c0 132 4 236 10 253 19 50 30 53 224 53 171 0 181 -1 203 -22z m-3322
-916 l0 -244 -28 -24 c-27 -23 -33 -24 -203 -24 -172 0 -175 0 -199 25 l-25
24 0 246 0 245 228 -2 227 -3 0 -243z m3345 3 l0 -246 -25 -24 c-24 -25 -27
-25 -199 -25 -170 0 -176 1 -203 24 l-28 24 -3 233 c-2 127 -1 238 2 245 4 11
50 14 231 14 l225 0 0 -245z m-3373 -879 l28 -24 0 -182 0 -182 -28 -24 c-27
-23 -33 -24 -203 -24 -237 0 -224 -14 -224 230 0 244 -13 230 224 230 170 0
176 -1 203 -24z m3348 -1 c25 -24 25 -26 25 -205 0 -244 13 -230 -224 -230
-170 0 -176 1 -203 24 l-28 24 0 182 0 182 28 24 c27 23 33 24 203 24 172 0
175 0 199 -25z m-1955 -425 l0 -340 -165 0 -165 0 0 340 0 340 165 0 165 0 0
-340z m490 0 l0 -340 -165 0 -165 0 0 340 0 340 165 0 165 0 0 -340z"/>
<path d="M1700 3017 c-49 -16 -133 -102 -148 -153 -8 -26 -12 -110 -12 -230 0
-168 3 -194 21 -234 25 -55 62 -95 114 -123 37 -21 54 -22 255 -22 191 0 219
2 250 19 49 26 88 64 113 111 21 37 22 54 22 255 0 203 -1 217 -22 256 -28 53
-91 107 -142 122 -49 15 -403 14 -451 -1z m415 -153 c37 -14 45 -57 45 -229
l0 -167 -29 -29 -29 -29 -167 0 c-167 0 -196 5 -222 39 -9 11 -12 70 -13 194
0 240 -13 227 224 227 96 0 182 -3 191 -6z"/>
<path d="M2961 3016 c-48 -17 -108 -71 -134 -119 -21 -40 -22 -54 -22 -257 0
-191 2 -219 19 -250 26 -49 64 -88 111 -113 37 -21 54 -22 255 -22 201 0 218
1 255 22 52 28 89 68 114 123 18 40 21 66 21 234 0 117 -4 204 -12 228 -17 59
-88 133 -145 152 -59 20 -408 22 -462 2z m434 -171 c25 -24 25 -26 25 -202 -1
-124 -4 -183 -13 -194 -26 -34 -55 -39 -222 -39 l-167 0 -29 29 -29 29 0 167
c0 168 9 215 42 228 7 3 93 6 191 6 176 1 178 1 202 -24z"/>
<path d="M1670 1996 c-52 -26 -105 -90 -120 -144 -15 -56 -12 -398 4 -445 21
-57 62 -105 116 -132 48 -24 56 -25 258 -25 204 0 209 0 260 26 59 29 94 70
117 133 21 62 21 390 0 452 -23 63 -58 104 -117 133 -51 26 -55 26 -262 26
-200 -1 -213 -2 -256 -24z m469 -162 c19 -25 21 -40 21 -199 0 -159 -2 -174
-21 -199 l-20 -26 -189 0 -189 0 -20 26 c-19 25 -21 40 -21 199 0 159 2 174
21 199 l20 26 189 0 189 0 20 -26z"/>
<path d="M2923 1990 c-57 -33 -86 -68 -108 -131 -21 -60 -21 -389 0 -450 23
-63 58 -104 117 -133 51 -26 56 -26 260 -26 202 0 210 1 258 25 27 14 61 41
76 60 47 62 53 95 53 300 0 205 -6 238 -53 300 -15 19 -49 46 -76 60 -48 24
-55 25 -262 25 l-213 0 -52 -30z m476 -156 c19 -25 21 -40 21 -199 0 -159 -2
-174 -21 -199 l-20 -26 -189 0 -189 0 -20 26 c-19 25 -21 40 -21 199 0 159 2
174 21 199 l20 26 189 0 189 0 20 -26z"/>
</g>
</svg>
