<?xml version="1.0" standalone="no"?>
<!DOCTYPE svg PUBLIC "-//W3C//DTD SVG 20010904//EN"
 "http://www.w3.org/TR/2001/REC-SVG-20010904/DTD/svg10.dtd">
<svg version="1.0" xmlns="http://www.w3.org/2000/svg"
 width="512.000000pt" height="512.000000pt" viewBox="0 0 512.000000 512.000000"
 preserveAspectRatio="xMidYMid meet">

<g transform="translate(0.000000,512.000000) scale(0.100000,-0.100000)"
fill="#000000" stroke="none">
<path d="M2501 4942 c-19 -9 -44 -30 -55 -45 l-21 -28 -5 -1977 -5 -1977 -375
644 c-272 467 -384 650 -408 669 -106 81 -270 -7 -259 -140 4 -50 -27 3 765
-1308 268 -444 355 -580 381 -597 63 -43 164 -23 205 39 8 13 247 425 530 917
508 880 516 896 516 949 0 106 -51 162 -148 162 -78 0 -115 -21 -160 -94 -21
-33 -191 -324 -378 -645 l-339 -584 -5 1959 c-4 1440 -8 1966 -16 1984 -36 79
-143 113 -223 72z"/>
</g>
</svg>
