<?xml version="1.0" standalone="no"?>
<!DOCTYPE svg PUBLIC "-//W3C//DTD SVG 20010904//EN"
 "http://www.w3.org/TR/2001/REC-SVG-20010904/DTD/svg10.dtd">
<svg version="1.0" xmlns="http://www.w3.org/2000/svg"
 width="512.000000pt" height="512.000000pt" viewBox="0 0 512.000000 512.000000"
 preserveAspectRatio="xMidYMid meet">

<g transform="translate(0.000000,512.000000) scale(0.100000,-0.100000)"
fill="#000000" stroke="none">
<path d="M2470 4785 c-25 -8 -159 -82 -299 -165 l-253 -150 -466 0 c-324 0
-476 -4 -503 -12 -51 -15 -114 -69 -142 -122 -21 -39 -22 -55 -25 -291 l-3
-250 -186 -110 c-102 -60 -192 -119 -199 -131 -12 -18 -14 -244 -12 -1480 l3
-1459 31 -65 c39 -83 111 -155 194 -194 l65 -31 1885 0 1885 0 67 32 c84 40
151 107 192 193 l31 65 3 1459 c2 1259 0 1462 -12 1481 -8 12 -98 71 -200 131
l-184 109 -4 250 c-3 236 -4 252 -25 291 -28 53 -91 107 -142 122 -27 8 -179
12 -503 12 l-465 0 -254 150 c-139 83 -276 157 -303 165 -61 18 -116 18 -176
0z m278 -231 l133 -79 -160 -3 c-89 -1 -233 -1 -322 0 l-161 3 103 60 c187
110 180 107 229 102 34 -3 78 -24 178 -83z m1387 -250 c44 -17 45 -32 44 -621
l0 -558 -575 -595 c-893 -924 -831 -865 -946 -896 -110 -29 -236 -4 -325 64
-27 20 -351 350 -721 732 l-671 695 0 558 c-1 474 1 562 14 587 8 15 20 30 27
33 19 8 3133 8 3153 1z m-3355 -851 l0 -158 -95 95 c-52 52 -94 98 -92 103 2
6 170 112 185 116 1 1 2 -70 2 -156z m3678 88 c39 -24 72 -46 72 -50 0 -3 -43
-49 -95 -101 l-95 -95 0 159 0 158 23 -14 c12 -8 55 -34 95 -57z m-3139 -1035
c625 -649 720 -751 708 -763 -8 -8 -338 -270 -733 -583 l-719 -568 -17 37
c-16 33 -17 128 -18 1361 l0 1325 29 -30 c16 -17 354 -367 750 -779z m3244
-1875 l-18 -38 -719 568 c-396 312 -725 574 -733 582 -12 12 97 129 734 790
l748 775 3 -1320 c2 -1240 1 -1322 -15 -1357z m-2249 890 c68 -35 176 -61 251
-61 116 0 262 56 350 133 l50 44 723 -570 c484 -383 718 -573 710 -579 -17
-10 -3659 -10 -3675 0 -9 5 229 200 710 579 l722 570 49 -43 c27 -23 76 -56
110 -73z"/>
<path d="M2370 3965 c-158 -36 -286 -107 -408 -227 -196 -193 -284 -434 -253
-694 25 -214 103 -376 256 -530 91 -92 110 -106 205 -152 133 -64 206 -82 351
-89 135 -7 238 10 363 60 133 52 178 116 121 172 -32 33 -54 32 -152 -10 -175
-76 -350 -85 -516 -27 -119 41 -189 84 -278 172 -138 136 -195 294 -187 508 9
201 71 345 208 483 139 139 294 196 514 187 102 -5 134 -10 202 -36 143 -53
249 -134 335 -256 138 -195 171 -502 66 -614 -32 -34 -91 -62 -132 -62 l-35 0
0 296 0 296 -29 29 c-33 33 -50 35 -91 14 -28 -15 -31 -14 -73 18 -184 141
-453 116 -614 -57 -140 -149 -170 -338 -84 -521 111 -239 409 -335 643 -208
l54 29 50 -26 c43 -22 61 -25 154 -25 95 0 110 3 163 28 71 35 146 107 174
168 29 62 46 195 38 297 -29 369 -267 659 -625 762 -99 29 -324 37 -420 15z
m321 -563 c61 -30 113 -81 146 -145 36 -69 38 -179 6 -249 -30 -66 -95 -132
-156 -159 -72 -32 -182 -33 -252 -1 -65 30 -128 92 -157 156 -33 75 -31 182 5
253 35 68 99 128 162 153 69 27 182 24 246 -8z"/>
</g>
</svg>
